<?xml version="1.0" standalone="no"?>
<!DOCTYPE svg PUBLIC "-//W3C//DTD SVG 20010904//EN"
 "http://www.w3.org/TR/2001/REC-SVG-20010904/DTD/svg10.dtd">
<svg version="1.0" xmlns="http://www.w3.org/2000/svg"
 width="260.000000pt" height="260.000000pt" viewBox="0 0 260.000000 260.000000"
 preserveAspectRatio="xMidYMid meet">
<metadata>
Created by potrace 1.11, written by Peter Selinger 2001-2013
</metadata>
<g transform="translate(0.000000,260.000000) scale(0.100000,-0.100000)"
fill="#000000" stroke="none">
<path d="M1692 2015 l-62 -96 -30 16 c-135 70 -384 73 -547 7 -131 -53 -251
-166 -312 -295 -62 -130 -75 -198 -75 -377 0 -136 3 -165 25 -235 29 -94 82
-194 137 -255 l39 -44 -84 -129 c-47 -71 -87 -135 -89 -141 -5 -14 134 -111
144 -101 4 3 43 63 88 133 45 70 88 126 96 125 7 -1 39 -11 71 -22 210 -77
477 -33 649 106 95 77 176 209 215 353 25 94 25 338 -1 435 -25 95 -68 183
-126 261 l-49 64 55 86 c30 47 57 91 60 98 3 7 -26 33 -65 59 -39 26 -72 47
-74 47 -1 0 -30 -43 -65 -95z m-295 -195 c34 -6 80 -18 101 -28 l40 -17 -286
-442 -286 -442 -28 42 c-112 169 -107 539 11 711 32 47 108 109 170 141 37 19
139 43 186 44 17 1 58 -4 92 -9z m328 -248 c56 -111 75 -330 41 -475 -53 -229
-221 -367 -446 -367 -72 0 -210 31 -210 47 0 3 127 203 283 443 312 483 282
452 332 352z"/>
</g>
</svg>
